<?xml version="1.0" standalone="no"?>
<!DOCTYPE svg PUBLIC "-//W3C//DTD SVG 20010904//EN"
 "http://www.w3.org/TR/2001/REC-SVG-20010904/DTD/svg10.dtd">
<svg version="1.0" xmlns="http://www.w3.org/2000/svg"
 width="1280.000000pt" height="1280.000000pt" viewBox="0 0 1280.000000 1280.000000"
 preserveAspectRatio="xMidYMid meet">
<g transform="translate(0.000000,1280.000000) scale(0.100000,-0.100000)"
fill="#000000" stroke="none">
<path d="M4672 12780 c-18 -11 -39 -35 -46 -53 -11 -26 -15 -316 -21 -1478 -6
-1296 -5 -1449 9 -1476 18 -36 65 -58 105 -50 15 3 177 89 359 190 l332 184
386 7 c240 4 395 11 408 18 34 17 56 51 56 89 0 29 -129 256 -721 1270 -396
679 -727 1244 -735 1257 -15 23 -71 62 -89 62 -5 0 -25 -9 -43 -20z"/>
<path d="M9614 12131 c-25 -11 -2079 -2044 -2088 -2067 -3 -9 -6 -31 -6 -51 0
-70 17 -77 423 -193 l368 -104 277 -268 c171 -165 289 -271 309 -278 41 -14
96 8 116 47 8 15 55 183 105 373 50 190 208 793 352 1340 316 1204 292 1105
276 1144 -7 17 -20 37 -29 44 -20 17 -77 24 -103 13z"/>
<path d="M719 9742 c-18 -9 -40 -30 -47 -45 -33 -68 -75 -22 1023 -1130 564
-569 1032 -1038 1041 -1041 8 -3 31 -6 51 -6 70 0 77 17 193 423 l104 368 266
275 c148 154 271 290 278 308 12 28 11 38 -1 69 -9 20 -28 42 -44 50 -15 8
-183 55 -373 105 -1345 353 -2409 631 -2431 636 -14 3 -39 -2 -60 -12z"/>
<path d="M6212 9589 c-771 -43 -1484 -360 -2046 -908 -513 -501 -814 -1095
-928 -1831 -19 -126 -22 -186 -22 -450 -1 -303 3 -359 41 -570 143 -805 615
-1550 1288 -2032 581 -417 1302 -625 2036 -587 773 40 1488 356 2053 908 521
509 821 1109 933 1866 22 153 25 669 5 810 -62 419 -156 721 -331 1060 -228
444 -555 829 -952 1123 -482 356 -1112 583 -1689 607 -69 3 -154 7 -190 9 -36
1 -125 -1 -198 -5z"/>
<path d="M9769 8186 c-32 -19 -53 -67 -46 -105 3 -15 89 -177 190 -359 l184
-332 7 -386 c4 -240 11 -395 18 -408 17 -35 51 -56 89 -56 29 0 258 130 1280
726 684 400 1254 735 1266 746 12 11 27 33 33 49 10 24 9 34 -7 61 -40 71 71
65 -1538 72 -1267 6 -1453 4 -1476 -8z"/>
<path d="M1309 5534 c-684 -400 -1254 -735 -1266 -746 -12 -11 -27 -33 -33
-49 -10 -24 -9 -34 7 -61 40 -70 -73 -64 1531 -73 1298 -6 1452 -5 1479 9 36
18 58 65 50 105 -3 15 -89 177 -190 359 l-184 332 -7 386 c-4 240 -11 395 -18
408 -17 35 -51 56 -89 56 -29 0 -258 -130 -1280 -726z"/>
<path d="M9952 5253 c-23 -23 -45 -89 -132 -396 l-104 -368 -266 -275 c-147
-153 -271 -290 -278 -308 -12 -28 -11 -38 1 -69 9 -20 28 -42 44 -50 15 -8
183 -55 373 -105 190 -50 811 -213 1380 -362 569 -150 1049 -273 1066 -273 64
-2 111 55 99 120 -5 26 -202 230 -1030 1066 -564 569 -1032 1038 -1041 1041
-39 15 -86 6 -112 -21z"/>
<path d="M3833 3625 c-17 -7 -38 -26 -46 -42 -8 -15 -55 -183 -105 -373 -50
-190 -213 -811 -362 -1380 -150 -569 -273 -1049 -273 -1066 -2 -64 55 -111
120 -99 26 5 230 202 1066 1030 569 564 1038 1032 1041 1041 3 8 6 31 6 51 0
70 -17 77 -423 193 l-368 104 -276 266 c-248 239 -306 289 -338 289 -5 0 -24
-6 -42 -14z"/>
<path d="M8040 3062 c-19 -10 -174 -95 -345 -189 l-310 -171 -384 -7 c-238 -4
-392 -10 -405 -17 -35 -17 -56 -51 -56 -89 0 -29 130 -258 726 -1280 400 -684
735 -1254 746 -1266 11 -12 33 -27 49 -33 24 -10 34 -9 61 7 70 40 64 -73 72
1530 8 1567 11 1490 -45 1519 -37 19 -68 18 -109 -4z"/>
</g>
</svg>
